# xmcd
#
# Track frame offsets:
#	150
#	16572
#	38168
#	59791
#	80059
#	99728
#	117570
#	134600
#	158348
#	177783
#	197669
#
# Disc length: 3423 seconds
#
# Revision: 0
# Processed by: cddbd v1.4PL0 Copyright (c) Steve Scherf et al.
# Submitted via: EasyCDDAExtractor 4.6.9.1
#
DISCID=900d5d0b
DTITLE=Bill Wolford - Exposure To Living
DYEAR=2001
DGENRE=Blues
TTITLE0=Exposure To Living
TTITLE1=Somewhere To Play
TTITLE2=Drinking Song
TTITLE3=Big Trucks
TTITLE4=Little Sister
TTITLE5=Sweet As Honey
TTITLE6=Suffer
TTITLE7=People, Places and Things
TTITLE8=Eye To Eye
TTITLE9=The Sun Is Blue
TTITLE10=Marjorie
EXTD=
EXTT0=
EXTT1=
EXTT2=
EXTT3=
EXTT4=
EXTT5=
EXTT6=
EXTT7=
EXTT8=
EXTT9=
EXTT10=
PLAYORDER=
